<svg width="16" height="16" viewBox="0 0 16 16" fill="none" xmlns="http://www.w3.org/2000/svg">
<path d="M7.00293 3.55371C6.83979 4.00447 6.75005 4.49131 6.75 5C6.75026 7.34699 8.65295 9.25 11 9.25C11.5084 9.25 11.9951 9.16034 12.4463 8.99707L13.4062 9.95703C12.6058 12.1673 10.4896 13.75 8 13.75C4.82452 13.75 2.25026 11.1754 2.25 8C2.25023 5.51079 3.83242 3.39313 6.04297 2.59277L7.00293 3.55371ZM5.25488 4.75781C4.33483 5.53763 3.75014 6.70065 3.75 8C3.75026 10.347 5.65295 12.25 8 12.25C9.29935 12.25 10.4607 11.6643 11.2402 10.7441C11.1606 10.7474 11.0805 10.75 11 10.75C7.82452 10.75 5.25026 8.17542 5.25 5C5.25001 4.91907 5.25154 4.83796 5.25488 4.75781ZM12.5 3.5H13.75V5H12.5V6.25H11V5H9.75V3.5H11V2.25H12.5V3.5Z" fill="#8F8F8F"/>
</svg>
