<svg width="16" height="16" viewBox="0 0 16 16" fill="none" xmlns="http://www.w3.org/2000/svg">
<path d="M8.75 14.75H7.25V13H8.75V14.75ZM4.99512 12.0654L3.75781 13.3037L2.69629 12.2422L3.93457 11.0049L4.99512 12.0654ZM13.3037 12.2422L12.2422 13.3037L11.0049 12.0654L12.0654 11.0049L13.3037 12.2422ZM8 4.5C9.933 4.5 11.5 6.067 11.5 8C11.5 9.933 9.933 11.5 8 11.5C6.067 11.5 4.5 9.933 4.5 8C4.5 6.067 6.067 4.5 8 4.5ZM8 6C6.89543 6 6 6.89543 6 8C6 9.10457 6.89543 10 8 10C9.10457 10 10 9.10457 10 8C10 6.89543 9.10457 6 8 6ZM3 8.75H1.25V7.25H3V8.75ZM14.75 8.75H13V7.25H14.75V8.75ZM4.99512 3.93457L3.93457 4.99512L2.69629 3.75781L3.75781 2.69629L4.99512 3.93457ZM13.3037 3.75781L12.0654 4.99512L11.0049 3.93457L12.2422 2.69629L13.3037 3.75781ZM8.75 3H7.25V1.25H8.75V3Z" fill="#8F8F8F"/>
</svg>
